<svg xmlns="http://www.w3.org/2000/svg" width="143" height="143" version="1.0" viewBox="0 0 107.25 107.25"><defs><clipPath id="a"><path d="M0 0h105.965v105.965H0Zm0 0"/></clipPath><clipPath id="b"><path d="M52.984 0C23.723 0 0 23.723 0 52.984s23.723 52.98 52.984 52.98 52.98-23.718 52.98-52.98S82.247 0 52.985 0m0 0"/></clipPath><clipPath id="c"><path d="M12.836 12.836h80.437v80.437H12.836Zm0 0"/></clipPath><clipPath id="d"><path d="M27.86 29.172h47.62v47.621H27.86Zm0 0"/></clipPath><clipPath id="e"><path d="M51.668 29.172c-13.148 0-23.809 10.66-23.809 23.812 0 13.149 10.66 23.809 23.809 23.809 13.152 0 23.812-10.66 23.812-23.809 0-13.152-10.66-23.812-23.812-23.812m0 0"/></clipPath><clipPath id="f"><path d="M33.176 45h39.476v19.613H33.176Zm0 0"/></clipPath></defs><g clip-path="url(#a)"><g clip-path="url(#b)"><path fill="#38b6ff" d="M0 0h105.965v105.965H0Zm0 0"/></g></g><g clip-path="url(#c)"><path fill="#fff" fill-rule="evenodd" d="M22.398 65.64a31 31 0 0 1-1.43-.855c-5.19-3.285-8.132-7.426-8.132-11.812 0-4.383 2.941-8.524 8.133-11.809q.69-.44 1.43-.855a30 30 0 0 1-.407-1.614c-1.347-5.992-.5-11.004 2.602-14.101 3.097-3.102 8.11-3.95 14.101-2.602q.798.177 1.614.406.415-.737.855-1.43c3.285-5.19 7.426-8.132 11.809-8.132 4.386 0 8.527 2.941 11.812 8.133q.44.69.856 1.43.816-.23 1.613-.407c5.992-1.347 11.004-.5 14.101 2.602 3.102 3.097 3.95 8.11 2.602 14.101q-.177.798-.406 1.614.738.415 1.43.855c5.19 3.285 8.132 7.426 8.132 11.809 0 4.386-2.941 8.527-8.133 11.812q-.69.44-1.43.856.23.816.407 1.613c1.348 5.992.5 11.004-2.602 14.101-3.097 3.102-8.109 3.95-14.101 2.602a30 30 0 0 1-1.613-.406q-.417.738-.856 1.43c-3.285 5.19-7.426 8.132-11.812 8.132-4.383 0-8.524-2.941-11.809-8.133q-.44-.69-.855-1.43-.815.23-1.614.407c-5.992 1.348-11.004.5-14.101-2.602-3.102-3.097-3.95-8.109-2.602-14.101q.177-.797.406-1.613m.895-22.574q-.41.24-.805.493c-4.21 2.664-6.816 5.863-6.816 9.414 0 3.554 2.605 6.754 6.816 9.418q.394.252.805.492c1.156-3.16 2.82-6.508 4.945-9.91-2.125-3.399-3.789-6.746-4.945-9.907m15.7-18.086a21 21 0 0 0-.919-.222c-4.86-1.09-8.965-.676-11.476 1.84-2.516 2.511-2.93 6.617-1.84 11.476q.099.457.222.918c3.051-1.418 6.598-2.61 10.504-3.508.899-3.906 2.09-7.453 3.508-10.504m23.89-1.687a23 23 0 0 0-.492-.805c-2.664-4.21-5.864-6.816-9.418-6.816-3.551 0-6.75 2.605-9.414 6.816a23 23 0 0 0-.493.805c3.16 1.156 6.508 2.82 9.907 4.945 3.402-2.125 6.75-3.789 9.91-4.945m18.086 15.7q.123-.463.222-.919c1.09-4.86.676-8.965-1.84-11.476-2.511-2.516-6.617-2.93-11.476-1.84q-.457.099-.918.222c1.418 3.051 2.61 6.598 3.508 10.504 3.906.899 7.453 2.09 10.504 3.508m1.687 23.89c.278-.16.543-.324.805-.492 4.21-2.664 6.816-5.864 6.816-9.418 0-3.551-2.605-6.75-6.816-9.414a20 20 0 0 0-.805-.493c-1.156 3.16-2.82 6.508-4.945 9.907 2.125 3.402 3.789 6.75 4.945 9.91M66.957 80.969q.462.123.918.222c4.86 1.09 8.965.676 11.477-1.84 2.515-2.511 2.93-6.617 1.84-11.476q-.1-.457-.223-.918c-3.051 1.418-6.598 2.61-10.504 3.508-.899 3.906-2.09 7.453-3.508 10.504m-23.89 1.687c.16.278.324.543.492.805 2.664 4.21 5.863 6.816 9.414 6.816 3.554 0 6.754-2.605 9.418-6.816.168-.262.332-.527.492-.805-3.16-1.156-6.508-2.82-9.91-4.945-3.399 2.125-6.746 3.789-9.907 4.945M24.98 66.957q-.123.462-.222.918c-1.09 4.86-.676 8.965 1.84 11.477 2.511 2.515 6.617 2.93 11.476 1.84q.457-.1.918-.223c-1.418-3.051-2.61-6.598-3.508-10.504-3.906-.899-7.453-2.09-10.504-3.508m9.872-28.414c-3.352.844-6.395 1.922-9.032 3.184.97 2.757 2.364 5.671 4.133 8.64a75 75 0 0 1 3.996-5.273c.211-2.258.516-4.45.903-6.551m-4.899 17.039c-1.77 2.973-3.164 5.883-4.133 8.64 2.637 1.262 5.68 2.34 9.032 3.184a75 75 0 0 1-.903-6.55 75 75 0 0 1-3.996-5.274m20.414-25.629c-2.969-1.77-5.883-3.164-8.64-4.133-1.262 2.637-2.34 5.68-3.184 9.032a75 75 0 0 1 6.55-.903 75 75 0 0 1 5.274-3.996m17.04 4.899c-.844-3.352-1.923-6.395-3.184-9.032-2.758.97-5.668 2.364-8.641 4.133a75 75 0 0 1 5.273 3.996c2.258.211 4.45.516 6.551.903m8.59 15.515c1.769-2.969 3.163-5.883 4.132-8.64-2.637-1.262-5.68-2.34-9.031-3.184.386 2.102.691 4.293.902 6.55a75 75 0 0 1 3.996 5.274m-4.9 17.04c3.352-.844 6.395-1.923 9.032-3.184-.969-2.758-2.363-5.668-4.133-8.641A75 75 0 0 1 72 60.855a75 75 0 0 1-.902 6.551m-15.515 8.59c2.973 1.769 5.883 3.163 8.64 4.132 1.262-2.637 2.34-5.68 3.184-9.031a75 75 0 0 1-6.55.902 75 75 0 0 1-5.274 3.996m-17.039-4.9c.844 3.352 1.922 6.395 3.184 9.032 2.757-.969 5.671-2.363 8.64-4.133A75 75 0 0 1 45.094 72a75 75 0 0 1-6.551-.902M33.629 50.09c-.715.96-1.39 1.926-2.027 2.883.636.96 1.312 1.925 2.027 2.886a78 78 0 0 1-.05-2.886q-.001-1.454.05-2.883m4.23-12.23a70 70 0 0 0-.605 3.476q.977-1.049 2.008-2.074a77 77 0 0 1 2.074-2.008 70 70 0 0 0-3.477.605m-.605 26.753c.176 1.188.379 2.344.605 3.477q1.698.34 3.477.605-1.049-.977-2.074-2.007a77 77 0 0 1-2.008-2.075m15.719-33.011a67 67 0 0 0-2.883 2.027q1.43-.051 2.883-.05 1.457-.001 2.886.05a65 65 0 0 0-2.886-2.027m15.117 6.257a70 70 0 0 0-3.477-.605q1.049.977 2.075 2.008a77 77 0 0 1 2.007 2.074 70 70 0 0 0-.605-3.477m6.258 15.114a67 67 0 0 0-2.028-2.883q.05 1.43.051 2.883c0 .972-.02 1.933-.05 2.886.714-.96 1.39-1.925 2.027-2.886M68.09 68.09q.34-1.698.605-3.477-.977 1.049-2.007 2.075a77 77 0 0 1-2.075 2.007 70 70 0 0 0 3.477-.605m-15.117 6.258a65 65 0 0 0 2.886-2.028q-1.429.05-2.886.051c-.97 0-1.93-.02-2.883-.05.96.714 1.926 1.39 2.883 2.027m-6.11-18.52-2.12 5.195-2.56-1.043 6.169-15.132h2.562l6.168 15.132-2.559 1.043-2.12-5.195Zm4.414-2.766-1.644-4.03-1.645 4.03Zm7.23-8.44h2.766v16.124h-2.765Zm0 0"/></g><g clip-path="url(#d)"><g clip-path="url(#e)"><path fill="#fff" d="M27.86 29.172h47.62v47.621H27.86Zm0 0"/></g></g><g clip-path="url(#f)"><path fill="#38b6ff" fill-rule="evenodd" d="M56.688 62.293a12.13 12.13 0 0 0 6.41 1.789c5.261 0 9.535-4.27 9.535-9.531 0-5.266-4.274-9.535-9.535-9.535-8.766 0-12.309 8.714-12.309 8.714s-2.324 5.954-8.227 5.954a5.136 5.136 0 0 1-5.132-5.133c0-2.836 2.3-5.137 5.133-5.137a7.8 7.8 0 0 1 4.12 1.145 2.199 2.199 0 1 0 2.29-3.754 12.1 12.1 0 0 0-6.41-1.79c-5.262 0-9.532 4.27-9.532 9.536 0 5.261 4.27 9.531 9.532 9.531 8.769 0 12.312-8.715 12.312-8.715s2.324-5.953 8.223-5.953a5.135 5.135 0 0 1 0 10.27 7.8 7.8 0 0 1-4.118-1.145 2.2 2.2 0 0 0-3.023.734 2.196 2.196 0 0 0 .73 3.02m0 0"/></g></svg>