<svg xmlns="http://www.w3.org/2000/svg" width="143" height="143" version="1.0" viewBox="0 0 107.25 107.25"><defs><clipPath id="a"><path d="M0 0h105.965v105.965H0Zm0 0"/></clipPath><clipPath id="b"><path d="M52.984 0C23.723 0 0 23.723 0 52.984s23.723 52.98 52.984 52.98 52.98-23.718 52.98-52.98S82.247 0 52.985 0m0 0"/></clipPath><clipPath id="c"><path d="M13.184 13.203h79.691v80.438H13.184Zm0 0"/></clipPath><clipPath id="d"><path d="M38.043 42.477h34.145v22.675H38.043Zm0 0"/></clipPath><clipPath id="e"><path d="M38.617 46.105h32.77v16.387h-32.77Zm0 0"/></clipPath></defs><g clip-path="url(#a)"><g clip-path="url(#b)"><path fill="#38b6ff" d="M0 0h105.965v105.965H0Zm0 0"/></g></g><g clip-path="url(#c)"><path fill="#fff" fill-rule="evenodd" d="M84.145 35.39a5.3 5.3 0 0 0-4.977-3.449c-2.84 0-5.309 2.47-5.309 5.305v32.715c0 2.89 2.418 5.309 5.309 5.309 2.988 0 5.36-2.446 5.305-5.43a8.67 8.67 0 0 1-4.828-2.438 1.173 1.173 0 1 1 1.656-1.664 6.27 6.27 0 0 0 4.46 1.844 6.308 6.308 0 1 0 0-12.617 1.179 1.179 0 1 1 0-2.36 8.64 8.64 0 0 1 5.79 2.22 6.17 6.17 0 0 0 1.222-3.704c0-1.566-.578-3.05-1.632-4.203a7.8 7.8 0 0 1-1.934 2.2c-.512.394-1.25.3-1.648-.216a1.17 1.17 0 0 1 .214-1.644 5.29 5.29 0 0 0 2.067-4.211 5.31 5.31 0 0 0-5.313-5.309 5.28 5.28 0 0 0-3.777 1.575 1.176 1.176 0 0 1-1.676-1.648 7.64 7.64 0 0 1 5.07-2.274m-14.383-9.55a2.53 2.53 0 0 1-1.348 2.234v7.399h3.313c-.211.832-.223 1.515-.223 2.355h-4.266c-.652 0-1.18-.527-1.18-1.18v-8.574a2.53 2.53 0 0 1-1.343-2.234 2.52 2.52 0 0 1 2.523-2.524 2.52 2.52 0 0 1 2.524 2.524m0 55.527a2.52 2.52 0 0 1-2.524 2.524 2.522 2.522 0 0 1-1.18-4.754V70.56c0-.649.528-1.176 1.18-1.176h4.266c0 .832.012 1.523.215 2.355h-3.305v7.399a2.52 2.52 0 0 1 1.348 2.23m-4.68-28.941h6.422v2.355h-6.422a2.525 2.525 0 0 1-4.758-1.176 2.525 2.525 0 0 1 4.758-1.18m6.422 9.152v-2.355H58.46c-.652 0-1.18.527-1.18 1.175V89.23a2.525 2.525 0 0 0 1.18 4.758 2.525 2.525 0 0 0 1.18-4.758V61.578ZM59.637 17.977a2.522 2.522 0 0 0-1.176-4.754 2.522 2.522 0 0 0-1.18 4.754v28.832c0 .652.528 1.18 1.18 1.18h13.043v-2.356H59.637ZM32.242 74.945c0-4.496-5.449-6.754-8.629-3.574a1.504 1.504 0 0 1-2.125 0l-3.23-3.23a1.5 1.5 0 0 1 0-2.121c3.183-3.18.926-8.633-3.574-8.633a1.5 1.5 0 0 1-1.5-1.5V51.32a1.5 1.5 0 0 1 1.5-1.5c4.504 0 6.761-5.445 3.574-8.632a1.5 1.5 0 0 1 0-2.122l3.23-3.23a1.504 1.504 0 0 1 2.125 0c3.18 3.18 8.63.926 8.63-3.574a1.5 1.5 0 0 1 1.5-1.5h2.284v11.68c-6.164 0-11.164 4.996-11.164 11.163 0 6.165 5 11.16 11.164 11.16v11.669l-2.285.011a1.5 1.5 0 0 1-1.5-1.5m3.785-13.32V45.582a8.022 8.022 0 1 0 0 16.043m7.602-6.844h-5.246v-2.355h5.246a2.522 2.522 0 1 1 2.23 3.703 2.52 2.52 0 0 1-2.23-1.348m-4.68-39.035c0 .969.543 1.809 1.344 2.23v17.497h-1.91v2.355h3.09c.648 0 1.175-.527 1.175-1.18V17.977a2.52 2.52 0 0 0 1.348-2.23 2.522 2.522 0 1 0-5.047 0m0 75.719a2.525 2.525 0 0 0 2.524 2.523 2.525 2.525 0 0 0 1.175-4.758V70.56c0-.649-.527-1.176-1.175-1.176h-3.09v2.355h1.91V89.23a2.52 2.52 0 0 0-1.344 2.235m8.778-15.86c0-.968.543-1.808 1.343-2.23V61.578H38.383v-2.355H50.25c.648 0 1.176.527 1.176 1.175v12.977a2.52 2.52 0 0 1 1.347 2.23 2.522 2.522 0 1 1-5.047 0m0-44.003a2.522 2.522 0 1 1 5.046 0 2.52 2.52 0 0 1-1.347 2.23v12.977c0 .652-.528 1.18-1.176 1.18H38.383v-2.356H49.07V33.832a2.52 2.52 0 0 1-1.343-2.23m0 0"/></g><g clip-path="url(#d)"><path fill="#38b6ff" d="M38.043 42.477H72.23v22.675H38.043Zm0 0"/></g><g clip-path="url(#e)"><path fill="#fff" fill-rule="evenodd" d="M58.203 60.926a10.1 10.1 0 0 0 5.34 1.488 7.944 7.944 0 0 0 7.945-7.941 7.946 7.946 0 0 0-7.945-7.942c-7.305 0-10.254 7.262-10.254 7.262s-1.937 4.957-6.852 4.957a4.28 4.28 0 0 1-4.277-4.277 4.28 4.28 0 0 1 4.278-4.278c1.374 0 2.511.395 3.43.953a1.83 1.83 0 0 0 2.519-.609 1.83 1.83 0 0 0-.61-2.516 10.1 10.1 0 0 0-5.34-1.492 7.945 7.945 0 0 0-7.94 7.942 7.943 7.943 0 0 0 7.94 7.941c7.305 0 10.254-7.258 10.254-7.258s1.938-4.96 6.852-4.96a4.28 4.28 0 0 1 4.277 4.277 4.276 4.276 0 0 1-4.277 4.277 6.5 6.5 0 0 1-3.43-.953 1.834 1.834 0 0 0-2.52.61 1.837 1.837 0 0 0 .61 2.519m0 0"/></g></svg>