<svg xmlns="http://www.w3.org/2000/svg" width="41" height="40" version="1.0" viewBox="0 0 30.75 30"><defs><clipPath id="a"><path d="M21 10h8.406v4H21Zm0 0"/></clipPath><clipPath id="b"><path d="M.375 17h29.031v12H.375Zm0 0"/></clipPath><clipPath id="c"><path d="M.375 8H10v8H.375Zm0 0"/></clipPath><clipPath id="d"><path d="M21 10h8.406v4H21Zm0 0"/></clipPath><clipPath id="e"><path d="M.375 17h29.031v12H.375Zm0 0"/></clipPath><clipPath id="f"><path d="M.375 8H10v8H.375Zm0 0"/></clipPath></defs><path fill="#38b6ff" d="M24.8 13.762a1.8 1.8 0 0 1-.562-.403l-1.277-1.367-1.063 2.387.391.484a4.07 4.07 0 0 0 3.293 1.5l.688-.023 1.07-2.39-1.867-.04a1.9 1.9 0 0 1-.672-.148m0 0"/><g clip-path="url(#a)"><path fill="#38b6ff" d="M21.992 13.152c.09-.203.07-.363-.015-.464l.675-1.52 1.828 1.96c.258.274.618.438.997.45l3.515.074c.235.004.363-.277.203-.449l-2.398-2.562a1.43 1.43 0 0 0-.996-.446l-3.516-.078c-.234-.004-.363.278-.203.45l.402.43-.71 1.585c-.145-.016-.286.086-.352.23-.129.293.047.34-.14.942-.024.293.636-.43.71-.602m0 0"/></g><path fill="#38b6ff" d="M14.898 17.172c2.207 0 3.993-2.445 3.993-4.652a3.99 3.99 0 1 0-7.98 0c0 2.207 1.784 4.652 3.987 4.652m0 0"/><g clip-path="url(#b)"><path fill="#38b6ff" d="m27.46 18.66-3.015 1.055-4.82-1.774q-.026-.009-.05-.02a2 2 0 0 0-.712-.136h-7.922c-.25 0-.492.05-.71.137-.016.008-.036.012-.051.02l-4.82 1.773-3.02-1.055c-.7-.25-1.469.117-1.711.82-.246.7.125 1.47.828 1.715l3.473 1.22q.216.074.449.073c.152 0 .316-.027.465-.078l2.996-1.105-.688 5.886a1.32 1.32 0 0 0 1.297 1.547h10.922c.817 0 1.438-.742 1.3-1.547l-.69-5.886 3 1.105c.148.055.304.078.464.078q.223.001.446-.074l3.476-1.219a1.34 1.34 0 0 0 .82-1.71 1.355 1.355 0 0 0-1.726-.825m0 0"/></g><path fill="#38b6ff" d="M4.027 11.344a.1.1 0 0 0 .047-.035c.004-.008.004-.012.012-.012l.016-.035q.009-.02.007-.04c0-.042-.03-.07-.07-.081q-.026-.005-.062-.004l-1.555.25c-.008 0-.02.008-.024.008a.1.1 0 0 0-.058.039.12.12 0 0 0-.035.086q0 .036.035.062l.035.02.016.003c.011.008.03.008.046 0l1.555-.25c.012-.007.024-.007.035-.011m.363.918c.005 0 .012-.008.016-.008.051-.024.086-.066.082-.121-.008-.063-.062-.098-.133-.086l-1.554.254c-.07.011-.121.07-.117.125.007.058.062.097.132.09l1.555-.254zm-1.285.992a.12.12 0 0 0-.035.086c.004.062.063.098.133.086l1.555-.25c.004 0 .012 0 .015-.008.008 0 .012-.004.02-.004a.14.14 0 0 0 .047-.035c.02-.024.039-.05.031-.086-.004-.059-.062-.098-.129-.086l-1.558.25a.16.16 0 0 0-.079.047m.435.875a.1.1 0 0 0-.04.023c-.035.02-.05.063-.05.098q-.001.031.034.063c.012.003.02.011.032.015q.03.013.066.008l1.555-.254c.011 0 .023-.008.035-.012.016-.008.035-.015.047-.035.004-.004.004-.012.008-.012q.008-.017.02-.035c.003-.011.003-.027.003-.039a.06.06 0 0 0-.012-.035c-.011-.023-.031-.035-.054-.047q-.031-.005-.063-.004l-1.559.254a.03.03 0 0 1-.023.012m0 0"/><g clip-path="url(#c)"><path fill="#38b6ff" d="M2.082 15.414c.004.012.012.024.016.04.207.452.82.62 1.379.39l2.66-1.102.16-.07H6.3l2.656-1.113c.55-.23.86-.786.688-1.258-.004-.012-.012-.024-.012-.04L8.14 8.689l-.461.253-.16-.39-.426.289-.16-.39-2.13 1.527c-.19.136-.292.382-.292.652-.196-.188-.438-.293-.672-.25l-2.574.422.16.39-.504.106.16.39-.5.149ZM7.363 8.88l1.422 3.387c.13.316.043.683-.195.851l-1.02.578.668-.48c.293-.215.38-.684.2-1.11L7.152 9.027Zm-2.601 1.578a.5.5 0 0 1 .18-.332l1.835-1.332 1.426 3.41c.16.379.07.742-.101.867l-1.84 1.332-1.422-3.41a1 1 0 0 1-.082-.437q.002-.052.004-.098m-.922.129a.5.5 0 0 1 .36.105c.023.02.054.043.073.067.098.09.192.21.254.36l1.426 3.413-2.242.367c-.215.032-.531-.156-.688-.535l-1.425-3.41Zm-2.332.797 1.285 3.078c.18.43.57.695.93.637l.816-.137-1.125.316c-.293.055-.61-.144-.742-.46L1.254 11.43Zm0 0"/></g><path fill="#38b6ff" d="M5.355 10.785c.012-.004.024-.012.036-.015l1.273-.934c.059-.04.07-.11.027-.152-.003-.008-.011-.012-.015-.02-.012-.012-.028-.012-.047-.016a.08.08 0 0 0-.066.004c-.02.008-.032.012-.043.024l-1.274.93c-.059.042-.07.109-.027.156.027.039.086.047.136.023m.235.891q.029.023.062.035h.02-.008.035-.004c.012 0 .02-.008.028-.008a.1.1 0 0 0 .027-.015l1.277-.93c.055-.043.067-.11.028-.156-.028-.036-.082-.047-.133-.028-.016.004-.027.012-.047.02l-1.273.933c-.036.032-.051.102-.012.149m.379.906a.12.12 0 0 0 .136.023h.008q.005-.002.004-.003c.008-.008.02-.008.024-.012l1.277-.934c.055-.039.066-.105.027-.152q-.016-.02-.039-.031a.2.2 0 0 0-.047-.012.14.14 0 0 0-.086.031l-1.27.934c-.058.043-.07.11-.034.156m.386.914c.032.04.09.047.141.024l.035-.02 1.278-.93c.003-.004.015-.011.02-.023a.1.1 0 0 1 .019-.024c.011-.015.011-.03.011-.05q.002-.02-.007-.028a.1.1 0 0 0-.016-.027l-.016-.02c-.011-.011-.03-.011-.047-.015a.1.1 0 0 0-.07.004c-.004 0-.012.008-.023.011-.004.008-.012.008-.024.012l-1.273.93c-.059.043-.07.11-.028.156m5.989-7.691c.011.02.027.03.039.047a3.43 3.43 0 0 0 2.414 1.085h.148a3.47 3.47 0 0 0 2.575-1.199c.085-.105.171-.207.246-.324a3.4 3.4 0 0 0 .59-1.832 3.38 3.38 0 0 0-.836-2.352A3.45 3.45 0 0 0 15.004.027a3.43 3.43 0 0 0-2.477.942l-.183.191a3.47 3.47 0 0 0-.895 2.227 3.45 3.45 0 0 0 .64 2.113c.083.098.165.203.255.305m3.527.57c.234-.29.426-.672.566-1.133q.358.095.649.23a.4.4 0 0 1 .086.048c-.348.39-.797.687-1.3.855m1.555-1.176a3.7 3.7 0 0 0-.89-.34 6.2 6.2 0 0 0 .144-1.277h1.273a3.06 3.06 0 0 1-.527 1.617m0-3.437c.289.422.465.902.512 1.414h-1.262a6.5 6.5 0 0 0-.14-1.074q.509-.13.89-.34m-.305-.38c.02.02.035.036.05.06-.026.015-.054.027-.089.046-.195.09-.414.164-.648.23-.145-.46-.34-.847-.575-1.132.48.148.914.426 1.262.797M15.125.489c.258.114.504.383.7.782.081.16.148.34.21.527a6 6 0 0 1-.922.082Zm-.012 1.793c.36-.008.711-.035 1.032-.094.07.313.117.645.132.989h-1.172Zm-.011 1.297h1.175a5.6 5.6 0 0 1-.136 1.195 6 6 0 0 0-1.051-.093Zm-.008 1.504c.328 0 .648.027.949.082a3.4 3.4 0 0 1-.215.527c-.203.418-.469.7-.746.797Zm-2.399.504c.207-.106.442-.2.696-.274.136.43.324.793.55 1.067a3 3 0 0 1-1.246-.793m1.985.887c-.258-.118-.504-.387-.7-.782a4 4 0 0 1-.195-.484q.433-.094.906-.117Zm.011-1.785a6.5 6.5 0 0 0-1.02.128 5.7 5.7 0 0 1-.151-1.246h1.18Zm.012-1.512h-1.172c.02-.364.067-.719.145-1.04.328.071.68.114 1.039.137Zm.02-2.703L14.71 1.87a5.4 5.4 0 0 1-.93-.121c.055-.172.117-.332.196-.48.21-.418.476-.7.746-.797m-1.914.785c.328-.309.718-.54 1.132-.68-.226.277-.414.64-.55 1.07a3.7 3.7 0 0 1-.696-.277 2 2 0 0 1 .114-.113m-.38.43c.012.007.028.019.048.023q.363.2.808.328a7 7 0 0 0-.156 1.137h-1.262a3 3 0 0 1 .563-1.489m.692 1.89c.004.48.063.938.16 1.344-.293.086-.57.195-.812.328-.012.004-.028.016-.04.023a3 3 0 0 1-.577-1.695zM24.766 6.68a.44.44 0 0 0 .363.183.446.446 0 0 0 .36-.71q-.331-.452-.696-.876a.45.45 0 0 0-.629-.047.454.454 0 0 0-.047.633c.23.266.45.535.649.817m-20.473.27a.4.4 0 0 0 .258.077.46.46 0 0 0 .367-.187c.203-.281.414-.559.637-.82a.447.447 0 0 0-.051-.633.45.45 0 0 0-.633.05c-.238.282-.469.583-.684.88a.45.45 0 0 0 .106.632m21.844 2.125a.45.45 0 0 0 .414.27.443.443 0 0 0 .414-.621c-.145-.34-.309-.676-.48-1.004a.45.45 0 0 0-.794.426c.16.296.309.613.446.93m-4.055-5.071c.277.2.555.418.813.64.085.075.187.11.293.11a.446.446 0 0 0 .293-.785 14 14 0 0 0-.876-.696.45.45 0 0 0-.625.098c-.136.2-.093.48.102.633m-15.625.891a.47.47 0 0 0 .3-.118c.259-.23.528-.445.802-.66a.45.45 0 0 0 .093-.625.447.447 0 0 0-.625-.086 13 13 0 0 0-.863.707.445.445 0 0 0-.035.63.43.43 0 0 0 .328.152M3.008 9.504a.4.4 0 0 0 .172.035.43.43 0 0 0 .41-.281c.133-.32.277-.637.433-.942a.45.45 0 0 0-.195-.605.457.457 0 0 0-.605.195c-.164.328-.325.672-.465 1.012-.09.23.02.496.25.586M8.79 3.238a.4.4 0 0 0 .218-.058c.297-.164.613-.32.93-.457a.449.449 0 0 0-.368-.82q-.509.222-1 .492a.449.449 0 0 0 .22.843m10.894-.598c.316.133.632.29.937.45q.101.051.207.05c.16 0 .313-.085.395-.242a.445.445 0 0 0-.184-.601 15 15 0 0 0-1.004-.477.45.45 0 0 0-.586.235.443.443 0 0 0 .235.586M24.8 13.762a1.8 1.8 0 0 1-.562-.403l-1.277-1.367-1.063 2.387.391.484a4.07 4.07 0 0 0 3.293 1.5l.688-.023 1.07-2.39-1.867-.04a1.9 1.9 0 0 1-.672-.148m0 0"/><g clip-path="url(#d)"><path fill="#38b6ff" d="M21.992 13.152c.09-.203.07-.363-.015-.464l.675-1.52 1.828 1.96c.258.274.618.438.997.45l3.515.074c.235.004.363-.277.203-.449l-2.398-2.562a1.43 1.43 0 0 0-.996-.446l-3.516-.078c-.234-.004-.363.278-.203.45l.402.43-.71 1.585c-.145-.016-.286.086-.352.23-.129.293.047.34-.14.942-.024.293.636-.43.71-.602m0 0"/></g><path fill="#38b6ff" d="M14.898 17.172c2.207 0 3.993-2.445 3.993-4.652a3.99 3.99 0 1 0-7.98 0c0 2.207 1.784 4.652 3.987 4.652m0 0"/><g clip-path="url(#e)"><path fill="#38b6ff" d="m27.46 18.66-3.015 1.055-4.82-1.774q-.026-.009-.05-.02a2 2 0 0 0-.712-.136h-7.922c-.25 0-.492.05-.71.137-.016.008-.036.012-.051.02l-4.82 1.773-3.02-1.055c-.7-.25-1.469.117-1.711.82-.246.7.125 1.47.828 1.715l3.473 1.22q.216.074.449.073c.152 0 .316-.027.465-.078l2.996-1.105-.688 5.886a1.32 1.32 0 0 0 1.297 1.547h10.922c.817 0 1.438-.742 1.3-1.547l-.69-5.886 3 1.105c.148.055.304.078.464.078q.223.001.446-.074l3.476-1.219a1.34 1.34 0 0 0 .82-1.71 1.355 1.355 0 0 0-1.726-.825m0 0"/></g><path fill="#38b6ff" d="M4.027 11.344a.1.1 0 0 0 .047-.035c.004-.008.004-.012.012-.012l.016-.035q.009-.02.007-.04c0-.042-.03-.07-.07-.081q-.026-.005-.062-.004l-1.555.25c-.008 0-.02.008-.024.008a.1.1 0 0 0-.058.039.12.12 0 0 0-.035.086q0 .036.035.062l.035.02.016.003c.011.008.03.008.046 0l1.555-.25c.012-.007.024-.007.035-.011m.363.918c.005 0 .012-.008.016-.008.051-.024.086-.066.082-.121-.008-.063-.062-.098-.133-.086l-1.554.254c-.07.011-.121.07-.117.125.007.058.062.097.132.09l1.555-.254zm-1.285.992a.12.12 0 0 0-.035.086c.004.062.063.098.133.086l1.555-.25c.004 0 .012 0 .015-.008.008 0 .012-.004.02-.004a.14.14 0 0 0 .047-.035c.02-.024.039-.05.031-.086-.004-.059-.062-.098-.129-.086l-1.558.25a.16.16 0 0 0-.079.047m.435.875a.1.1 0 0 0-.04.023c-.035.02-.05.063-.05.098q-.001.031.034.063c.012.003.02.011.032.015q.03.013.066.008l1.555-.254c.011 0 .023-.008.035-.012.016-.008.035-.015.047-.035.004-.004.004-.012.008-.012q.008-.017.02-.035c.003-.011.003-.027.003-.039a.06.06 0 0 0-.012-.035c-.011-.023-.031-.035-.054-.047q-.031-.005-.063-.004l-1.559.254a.03.03 0 0 1-.023.012m0 0"/><g clip-path="url(#f)"><path fill="#38b6ff" d="M2.082 15.414c.004.012.012.024.016.04.207.452.82.62 1.379.39l2.66-1.102.16-.07H6.3l2.656-1.113c.55-.23.86-.786.688-1.258-.004-.012-.012-.024-.012-.04L8.14 8.689l-.461.253-.16-.39-.426.289-.16-.39-2.13 1.527c-.19.136-.292.382-.292.652-.196-.188-.438-.293-.672-.25l-2.574.422.16.39-.504.106.16.39-.5.149ZM7.363 8.88l1.422 3.387c.13.316.043.683-.195.851l-1.02.578.668-.48c.293-.215.38-.684.2-1.11L7.152 9.027Zm-2.601 1.578a.5.5 0 0 1 .18-.332l1.835-1.332 1.426 3.41c.16.379.07.742-.101.867l-1.84 1.332-1.422-3.41a1 1 0 0 1-.082-.437q.002-.052.004-.098m-.922.129a.5.5 0 0 1 .36.105c.023.02.054.043.073.067.098.09.192.21.254.36l1.426 3.413-2.242.367c-.215.032-.531-.156-.688-.535l-1.425-3.41Zm-2.332.797 1.285 3.078c.18.43.57.695.93.637l.816-.137-1.125.316c-.293.055-.61-.144-.742-.46L1.254 11.43Zm0 0"/></g><path fill="#38b6ff" d="M5.355 10.785c.012-.004.024-.012.036-.015l1.273-.934c.059-.04.07-.11.027-.152-.003-.008-.011-.012-.015-.02-.012-.012-.028-.012-.047-.016a.08.08 0 0 0-.066.004c-.02.008-.032.012-.043.024l-1.274.93c-.059.042-.07.109-.027.156.027.039.086.047.136.023m.235.891q.029.023.062.035h.02-.008.035-.004c.012 0 .02-.008.028-.008a.1.1 0 0 0 .027-.015l1.277-.93c.055-.043.067-.11.028-.156-.028-.036-.082-.047-.133-.028-.016.004-.027.012-.047.02l-1.273.933c-.036.032-.051.102-.012.149m.379.906a.12.12 0 0 0 .136.023h.008q.005-.002.004-.003c.008-.008.02-.008.024-.012l1.277-.934c.055-.039.066-.105.027-.152q-.016-.02-.039-.031a.2.2 0 0 0-.047-.012.14.14 0 0 0-.086.031l-1.27.934c-.058.043-.07.11-.034.156m.386.914c.032.04.09.047.141.024l.035-.02 1.278-.93c.003-.004.015-.011.02-.023a.1.1 0 0 1 .019-.024c.011-.015.011-.03.011-.05q.002-.02-.007-.028a.1.1 0 0 0-.016-.027l-.016-.02c-.011-.011-.03-.011-.047-.015a.1.1 0 0 0-.07.004c-.004 0-.012.008-.023.011-.004.008-.012.008-.024.012l-1.273.93c-.059.043-.07.11-.028.156m5.989-7.691c.011.02.027.03.039.047a3.43 3.43 0 0 0 2.414 1.085h.148a3.47 3.47 0 0 0 2.575-1.199c.085-.105.171-.207.246-.324a3.4 3.4 0 0 0 .59-1.832 3.38 3.38 0 0 0-.836-2.352A3.45 3.45 0 0 0 15.004.027a3.43 3.43 0 0 0-2.477.942l-.183.191a3.47 3.47 0 0 0-.895 2.227 3.45 3.45 0 0 0 .64 2.113c.083.098.165.203.255.305m3.527.57c.234-.29.426-.672.566-1.133q.358.095.649.23a.4.4 0 0 1 .086.048c-.348.39-.797.687-1.3.855m1.555-1.176a3.7 3.7 0 0 0-.89-.34 6.2 6.2 0 0 0 .144-1.277h1.273a3.06 3.06 0 0 1-.527 1.617m0-3.437c.289.422.465.902.512 1.414h-1.262a6.5 6.5 0 0 0-.14-1.074q.509-.13.89-.34m-.305-.38c.02.02.035.036.05.06-.026.015-.054.027-.089.046-.195.09-.414.164-.648.23-.145-.46-.34-.847-.575-1.132.48.148.914.426 1.262.797M15.125.489c.258.114.504.383.7.782.081.16.148.34.21.527a6 6 0 0 1-.922.082Zm-.012 1.793c.36-.008.711-.035 1.032-.094.07.313.117.645.132.989h-1.172Zm-.011 1.297h1.175a5.6 5.6 0 0 1-.136 1.195 6 6 0 0 0-1.051-.093Zm-.008 1.504c.328 0 .648.027.949.082a3.4 3.4 0 0 1-.215.527c-.203.418-.469.7-.746.797Zm-2.399.504c.207-.106.442-.2.696-.274.136.43.324.793.55 1.067a3 3 0 0 1-1.246-.793m1.985.887c-.258-.118-.504-.387-.7-.782a4 4 0 0 1-.195-.484q.433-.094.906-.117Zm.011-1.785a6.5 6.5 0 0 0-1.02.128 5.7 5.7 0 0 1-.151-1.246h1.18Zm.012-1.512h-1.172c.02-.364.067-.719.145-1.04.328.071.68.114 1.039.137Zm.02-2.703L14.71 1.87a5.4 5.4 0 0 1-.93-.121c.055-.172.117-.332.196-.48.21-.418.476-.7.746-.797m-1.914.785c.328-.309.718-.54 1.132-.68-.226.277-.414.64-.55 1.07a3.7 3.7 0 0 1-.696-.277 2 2 0 0 1 .114-.113m-.38.43c.012.007.028.019.048.023q.363.2.808.328a7 7 0 0 0-.156 1.137h-1.262a3 3 0 0 1 .563-1.489m.692 1.89c.004.48.063.938.16 1.344-.293.086-.57.195-.812.328-.012.004-.028.016-.04.023a3 3 0 0 1-.577-1.695zM24.766 6.68a.44.44 0 0 0 .363.183.446.446 0 0 0 .36-.71q-.331-.452-.696-.876a.45.45 0 0 0-.629-.047.454.454 0 0 0-.047.633c.23.266.45.535.649.817m-20.473.27a.4.4 0 0 0 .258.077.46.46 0 0 0 .367-.187c.203-.281.414-.559.637-.82a.447.447 0 0 0-.051-.633.45.45 0 0 0-.633.05c-.238.282-.469.583-.684.88a.45.45 0 0 0 .106.632m21.844 2.125a.45.45 0 0 0 .414.27.443.443 0 0 0 .414-.621c-.145-.34-.309-.676-.48-1.004a.45.45 0 0 0-.794.426c.16.296.309.613.446.93m-4.055-5.071c.277.2.555.418.813.64.085.075.187.11.293.11a.446.446 0 0 0 .293-.785 14 14 0 0 0-.876-.696.45.45 0 0 0-.625.098c-.136.2-.093.48.102.633m-15.625.891a.47.47 0 0 0 .3-.118c.259-.23.528-.445.802-.66a.45.45 0 0 0 .093-.625.447.447 0 0 0-.625-.086 13 13 0 0 0-.863.707.445.445 0 0 0-.035.63.43.43 0 0 0 .328.152M3.008 9.504a.4.4 0 0 0 .172.035.43.43 0 0 0 .41-.281c.133-.32.277-.637.433-.942a.45.45 0 0 0-.195-.605.457.457 0 0 0-.605.195c-.164.328-.325.672-.465 1.012-.09.23.02.496.25.586M8.79 3.238a.4.4 0 0 0 .218-.058c.297-.164.613-.32.93-.457a.449.449 0 0 0-.368-.82q-.509.222-1 .492a.449.449 0 0 0 .22.843m10.894-.598c.316.133.632.29.937.45q.101.051.207.05c.16 0 .313-.085.395-.242a.445.445 0 0 0-.184-.601 15 15 0 0 0-1.004-.477.45.45 0 0 0-.586.235.443.443 0 0 0 .235.586m0 0"/></svg>