<svg xmlns="http://www.w3.org/2000/svg" width="42" height="46" version="1.0" viewBox="0 0 31.5 34.5"><defs><clipPath id="a"><path d="M8 .023h23V23H8Zm0 0"/></clipPath><clipPath id="b"><path d="M0 21h28v12.246H0Zm0 0"/></clipPath><clipPath id="c"><path d="M8 .59h23V23H8Zm0 0"/></clipPath><clipPath id="d"><path d="M0 21h28v12.813H0Zm0 0"/></clipPath></defs><g clip-path="url(#a)"><path fill="#38b6ff" d="M19.7 22.148c6.105 0 11.03-4.964 11.03-11.035 0-6.11-4.925-11.07-11.03-11.07-6.11 0-11.036 4.96-11.036 11.031 0 6.11 4.926 11.074 11.035 11.074m0-14.48c-1 0-1.852-.813-1.852-1.848 0-1 .812-1.851 1.851-1.851.996 0 1.848.812 1.848 1.851a1.854 1.854 0 0 1-1.848 1.848m-1.778.52a2.92 2.92 0 0 0 1.777.593c.664 0 1.293-.222 1.778-.594.664.333 1.218.817 1.293 1.778v.37a2.94 2.94 0 0 0-2.407 2.888c0 .554.149 1.074.407 1.48-.407.223-.778.52-1.07.965-.298-.445-.708-.742-1.075-.965.258-.441.406-.96.406-1.48a2.94 2.94 0 0 0-2.406-2.887v-.371c.074-1 .629-1.445 1.297-1.777m8.476 10.218c-1.628 1.52-3.777 2.446-6.144 2.594v-3.629c.074-1 .629-1.48 1.293-1.816a2.94 2.94 0 0 0 1.777.593 2.92 2.92 0 0 0 1.778-.593c.668.336 1.222.816 1.296 1.777Zm-3.074-3.332a1.855 1.855 0 0 1-1.847-1.851c0-1 .812-1.852 1.847-1.852 1 0 1.852.816 1.852 1.852a1.855 1.855 0 0 1-1.852 1.851M16.07 11.41c1 0 1.852.813 1.852 1.852 0 1-.817 1.851-1.852 1.851-1 0-1.851-.816-1.851-1.851 0-1.04.851-1.852 1.851-1.852m-1.777 4.184a2.92 2.92 0 0 0 1.777.594c.664 0 1.293-.223 1.778-.594.664.332 1.218.812 1.293 1.812v3.63c-2.368-.15-4.516-1.075-6.145-2.59v-1.04c.074-1 .629-1.48 1.297-1.812m5.406-14.442c5.477 0 9.922 4.446 9.922 9.922 0 2.336-.816 4.446-2.148 6.149-.149-1.332-.887-2.075-1.63-2.48a3 3 0 0 0 .407-1.481 2.94 2.94 0 0 0-2.406-2.89V9.93c-.11-1.371-.887-2.114-1.63-2.555a3 3 0 0 0 .407-1.48 2.97 2.97 0 0 0-2.96-2.965 2.97 2.97 0 0 0-2.962 2.965c0 .554.149 1.07.406 1.48-.777.441-1.52 1.184-1.628 2.555v.441a2.94 2.94 0 0 0-2.407 2.89c0 .555.149 1.075.407 1.481-.739.445-1.516 1.149-1.63 2.48C10.517 15.52 9.7 13.41 9.7 11.075c.074-5.476 4.52-9.922 10-9.922m0 0"/></g><g clip-path="url(#b)"><path fill="#38b6ff" d="m24.621 24.11-7.258 2.85c.04-1.222-.554-2.667-1.812-3.48l-1.371-.89c-1.961-1.293-4.48-1.293-6.887-1.293H.555a.567.567 0 0 0-.555.555v7.996c0 .297.258.554.555.554h4.812c1.852 0 2.113.149 4.555 1.63l.074.038c1.48.887 2.555 1.297 3.629 1.297.926 0 1.852-.297 3-.851l9.625-4.446c1.48-.703 1.852-2.074 1.445-3.035-.37-.89-1.48-1.555-3.074-.926M1.11 22.405h3.704v6.887H1.108Zm24.696 4.664-9.625 4.446c-2.223 1.035-3.184 1.07-5.59-.41l-.074-.036c-2.258-1.37-2.852-1.742-4.555-1.777v-6.887h1.371c2.367 0 4.59 0 6.293 1.11l1.371.89c1.223.813 1.48 2.407 1.149 3.219-.04.074-.075.148-.114.223-.554.703-1.554.148-1.851-.035l-3.739-2.446c-.257-.183-.593-.11-.777.149-.187.257-.113.593.149.777l3.738 2.445c.594.371 1.183.59 1.742.59.629 0 1.219-.258 1.59-.812.039-.075.113-.149.148-.223l7.996-3.148c.778-.297 1.446-.184 1.668.335.223.48-.039 1.184-.89 1.59m0 0"/></g><g clip-path="url(#c)"><path fill="#38b6ff" d="M19.7 22.715c6.105 0 11.03-4.961 11.03-11.035C30.73 5.57 25.805.61 19.7.61 13.59.61 8.663 5.57 8.663 11.644c0 6.109 4.926 11.07 11.035 11.07m0-14.477c-1 0-1.852-.816-1.852-1.851 0-1 .812-1.852 1.851-1.852.996 0 1.848.813 1.848 1.852a1.857 1.857 0 0 1-1.848 1.851m-1.778.516a2.92 2.92 0 0 0 1.777.594c.664 0 1.293-.223 1.778-.594.664.336 1.218.816 1.293 1.777v.371a2.94 2.94 0 0 0-2.407 2.887c0 .559.149 1.074.407 1.484a2.9 2.9 0 0 0-1.07.961c-.298-.445-.708-.742-1.075-.96.258-.446.406-.965.406-1.485a2.94 2.94 0 0 0-2.406-2.887v-.37c.074-1 .629-1.442 1.297-1.778m8.476 10.219c-1.628 1.52-3.777 2.445-6.144 2.593v-3.628c.074-1 .629-1.481 1.293-1.813a2.96 2.96 0 0 0 1.777.59c.668 0 1.297-.223 1.778-.59.668.332 1.222.813 1.296 1.777Zm-3.074-3.332a1.855 1.855 0 0 1-1.847-1.852c0-1 .812-1.851 1.847-1.851 1 0 1.852.816 1.852 1.851 0 1.04-.852 1.852-1.852 1.852m-7.254-3.664c1 0 1.852.812 1.852 1.851 0 1-.817 1.852-1.852 1.852-1 0-1.851-.817-1.851-1.852 0-1.039.851-1.851 1.851-1.851m-1.777 4.183a2.92 2.92 0 0 0 1.777.594c.664 0 1.293-.223 1.778-.594.664.332 1.218.817 1.293 1.813v3.629c-2.368-.149-4.516-1.075-6.145-2.59v-1.04c.074-.995.629-1.48 1.297-1.812M19.699 1.72c5.477 0 9.922 4.445 9.922 9.926 0 2.332-.816 4.44-2.148 6.144-.149-1.332-.887-2.074-1.63-2.48.259-.446.407-.961.407-1.48a2.936 2.936 0 0 0-2.406-2.888v-.445c-.11-1.371-.887-2.11-1.63-2.555a3 3 0 0 0 .407-1.48 2.97 2.97 0 0 0-2.96-2.965 2.97 2.97 0 0 0-2.962 2.965c0 .555.149 1.074.406 1.48-.777.446-1.52 1.184-1.628 2.555v.445a2.936 2.936 0 0 0-2.407 2.887c0 .555.149 1.074.407 1.48-.739.446-1.516 1.149-1.63 2.481-1.331-1.703-2.148-3.812-2.148-6.144.074-5.48 4.52-9.926 10-9.926m0 0"/></g><g clip-path="url(#d)"><path fill="#38b6ff" d="m24.621 24.676-7.258 2.851c.04-1.222-.554-2.668-1.812-3.48l-1.371-.89c-1.961-1.294-4.48-1.294-6.887-1.294H.555a.567.567 0 0 0-.555.555v7.996c0 .297.258.555.555.555h4.812c1.852 0 2.113.148 4.555 1.629l.074.039c1.48.886 2.555 1.297 3.629 1.297.926 0 1.852-.297 3-.852l9.625-4.445c1.48-.703 1.852-2.075 1.445-3.035-.37-.887-1.48-1.555-3.074-.926M1.11 22.973h3.704v6.886H1.108Zm24.696 4.664-9.625 4.445c-2.223 1.035-3.184 1.074-5.59-.406l-.074-.04c-2.258-1.37-2.852-1.738-4.555-1.777v-6.886h1.371c2.367 0 4.59 0 6.293 1.109l1.371.89c1.223.813 1.48 2.407 1.149 3.223-.04.07-.075.145-.114.22-.554.702-1.554.148-1.851-.036l-3.739-2.445c-.257-.184-.593-.11-.777.148-.187.262-.113.594.149.777l3.738 2.446c.594.37 1.183.593 1.742.593.629 0 1.219-.261 1.59-.816.039-.074.113-.148.148-.223l7.996-3.148c.778-.293 1.446-.184 1.668.336.223.48-.039 1.183-.89 1.59m0 0"/></g></svg>