<svg xmlns="http://www.w3.org/2000/svg" width="40" height="43" version="1.0" viewBox="0 0 30 32.25"><defs><clipPath id="a"><path d="M10 24h10v6.785H10Zm0 0"/></clipPath><clipPath id="b"><path d="M.34 24H9v6.785H.34Zm0 0"/></clipPath><clipPath id="c"><path d="M21 24h8.656v6.785H21Zm0 0"/></clipPath><clipPath id="d"><path d="M10 24h10v6.785H10Zm0 0"/></clipPath><clipPath id="e"><path d="M.34 24H9v6.785H.34Zm0 0"/></clipPath><clipPath id="f"><path d="M21 24h8.656v6.785H21Zm0 0"/></clipPath></defs><path fill="#38b6ff" d="M3.723 15.773h3.851a2.66 2.66 0 0 0 1.531 1.047q.308.077.625.078.319 0 .625-.078.31-.07.59-.222a2.66 2.66 0 0 0 .941-.824h6.204a2.66 2.66 0 0 0 1.531 1.046 2.6 2.6 0 0 0 1.25 0q.31-.07.59-.222.283-.146.52-.356.24-.21.421-.469h3.852a1.1 1.1 0 0 0 .797-.332 1.2 1.2 0 0 0 .246-.363q.084-.206.086-.43v-.378q-.002-.224-.086-.43a1.14 1.14 0 0 0-1.043-.695V1.125q.001-.223-.086-.43a1.1 1.1 0 0 0-.242-.367 1.1 1.1 0 0 0-.367-.242 1.1 1.1 0 0 0-.43-.086H4.848q-.224-.001-.43.086a1.2 1.2 0 0 0-.367.242 1.13 1.13 0 0 0-.328.797v12.02a1.12 1.12 0 0 0-.797.328q-.159.16-.246.367a1.2 1.2 0 0 0-.086.43v.378q.002.224.086.43a1.15 1.15 0 0 0 .61.61q.21.086.433.085m7.136 0q-.502.375-1.129.375t-1.125-.375q-.76-.562-.753-1.503-.002-.187.039-.375c.054-.274.168-.528.34-.75a1.8 1.8 0 0 1 .296-.317q.17-.14.364-.238.193-.096.41-.145.211-.051.43-.05.216-.001.433.05.211.05.406.145.194.098.364.238c.113.094.21.2.3.317.168.222.282.476.336.75q.041.188.04.375a1.77 1.77 0 0 1-.75 1.503m1.391-.75q.11-.368.11-.753.002-.187-.032-.375h5.32a2.6 2.6 0 0 0 .078 1.129Zm9.121.75q-.498.375-1.125.375t-1.125-.375q-.761-.562-.754-1.503-.001-.187.04-.375c.054-.274.167-.528.335-.75a1.9 1.9 0 0 1 .664-.555q.194-.096.41-.145.213-.051.43-.05.218-.001.434.05.211.05.406.145.194.098.363.238.168.141.301.317c.168.222.281.476.336.75q.04.188.039.375.007.941-.754 1.503m5.258-1.503v.378a.36.36 0 0 1-.11.266c-.07.07-.16.11-.265.11h-3.488q.11-.37.109-.754.002-.187-.031-.375h3.41q.159.002.266.109.11.112.109.266M4.473 1.125q-.001-.153.109-.266A.38.38 0 0 1 4.848.75h20.28c.102 0 .192.04.267.11q.11.111.109.265v12.02H22.62a2.6 2.6 0 0 0-.973-1.094 2.6 2.6 0 0 0-1.402-.406q-.76 0-1.402.406-.645.408-.973 1.094h-5.766a2.6 2.6 0 0 0-.972-1.094 2.6 2.6 0 0 0-1.403-.406q-.759 0-1.402.406-.645.408-.973 1.094H4.473ZM3.348 14.27q-.001-.154.109-.266c.074-.07.16-.11.266-.11h3.41a2.6 2.6 0 0 0 .078 1.129H3.723a.37.37 0 0 1-.375-.375Zm0 0"/><path fill="#38b6ff" d="M11.797 3.379h6.383a.36.36 0 0 0 .265-.11.36.36 0 0 0 .11-.265.36.36 0 0 0-.11-.266.36.36 0 0 0-.265-.11h-6.383a.36.36 0 0 0-.266.11.36.36 0 0 0-.11.266q0 .155.11.266.109.11.266.109m-4.32 2.629H22.5a.36.36 0 0 0 .266-.11.36.36 0 0 0 .109-.265.36.36 0 0 0-.11-.266.36.36 0 0 0-.265-.11H7.477a.36.36 0 0 0-.266.11.36.36 0 0 0-.11.266q0 .156.11.265.112.111.266.11m0 3.004H22.5a.36.36 0 0 0 .266-.11.36.36 0 0 0 .109-.265.36.36 0 0 0-.11-.266.38.38 0 0 0-.265-.11H7.477a.38.38 0 0 0-.266.11.36.36 0 0 0-.11.266q0 .156.11.265.112.111.266.11m15.398 2.254a.36.36 0 0 0-.11-.266.38.38 0 0 0-.265-.11H7.477a.38.38 0 0 0-.266.11.36.36 0 0 0-.11.266q0 .156.11.265.112.11.266.11H22.5a.36.36 0 0 0 .266-.11.36.36 0 0 0 .109-.265m0 0"/><g clip-path="url(#a)"><path fill="#38b6ff" d="M16.492 24.41h-3.008a2.6 2.6 0 0 0-1.855.77 2.6 2.6 0 0 0-.57.855 2.6 2.6 0 0 0-.2 1.004v3.383q0 .153.11.262.106.112.265.113h7.508q.16-.002.266-.113a.35.35 0 0 0 .113-.262v-3.383q.001-.523-.203-1.004a2.6 2.6 0 0 0-.566-.855 2.7 2.7 0 0 0-.856-.57 2.6 2.6 0 0 0-1.004-.2m1.875 5.633H11.61v-3.004q0-.374.141-.719a1.9 1.9 0 0 1 1.02-1.015c.226-.094.468-.14.714-.14h3.008a1.9 1.9 0 0 1 .719.14q.34.144.61.406.26.264.406.61.14.344.14.718Zm0 0"/></g><g clip-path="url(#b)"><path fill="#38b6ff" d="M5.977 24.41H2.973a2.6 2.6 0 0 0-1.86.77 2.6 2.6 0 0 0-.57.855 2.6 2.6 0 0 0-.2 1.004v3.383q0 .153.11.262.106.112.266.113H8.23q.155-.002.262-.113a.35.35 0 0 0 .113-.262v-3.383q.001-.523-.203-1.004a2.6 2.6 0 0 0-.566-.855 2.7 2.7 0 0 0-.856-.57 2.6 2.6 0 0 0-1.003-.2m1.875 5.633H1.094v-3.004q0-.374.14-.719a1.9 1.9 0 0 1 1.02-1.015 1.9 1.9 0 0 1 .719-.14h3.004a1.9 1.9 0 0 1 .718.14c.23.097.43.23.61.406q.26.264.406.61.14.344.14.718Zm0 0"/></g><g clip-path="url(#c)"><path fill="#38b6ff" d="M27.008 24.41H24a2.6 2.6 0 0 0-1.855.77q-.373.368-.57.855-.203.481-.204 1.004v3.383q.002.153.113.262.106.112.266.113h7.508q.159-.002.265-.113a.35.35 0 0 0 .114-.262v-3.383q0-.523-.203-1.004a2.63 2.63 0 0 0-2.426-1.625m1.875 5.633h-6.758v-3.004q0-.374.14-.719a1.9 1.9 0 0 1 1.02-1.016c.227-.093.469-.14.715-.14h3.008a1.9 1.9 0 0 1 .719.14q.34.145.609.407.262.264.406.61.14.344.14.718Zm0 0"/></g><path fill="#38b6ff" d="M4.473 24.035q.748.006 1.386-.398a.3.3 0 0 0 .118.023h7.507a.3.3 0 0 0 .118-.023q.637.396 1.386.394.749.002 1.387-.394a.3.3 0 0 0 .117.023H24a.3.3 0 0 0 .117-.023q.638.405 1.387.398.3 0 .594-.07.288-.065.558-.2c.18-.085.348-.195.504-.32a2.7 2.7 0 0 0 .727-.937q.124-.27.183-.563c.043-.199.063-.394.055-.593a2.7 2.7 0 0 0-.078-.59 2.7 2.7 0 0 0-.211-.559 2.7 2.7 0 0 0-.332-.496 2.5 2.5 0 0 0-.434-.406 2.4 2.4 0 0 0-.515-.301 2.4 2.4 0 0 0-.57-.176 2.7 2.7 0 0 0-1.18.047 2.7 2.7 0 0 0-.555.223 2.6 2.6 0 0 0-.375-.735 2.6 2.6 0 0 0-.582-.582 2.6 2.6 0 0 0-1.543-.5h-3.008q-.415-.001-.812.125a2.65 2.65 0 0 0-1.687 1.691 2.6 2.6 0 0 0-1.255-.316 2.6 2.6 0 0 0-1.254.317 2.6 2.6 0 0 0-.375-.735 2.6 2.6 0 0 0-.582-.582 2.6 2.6 0 0 0-1.543-.5H8.23q-.418.001-.816.125a2.65 2.65 0 0 0-1.687 1.691 2.8 2.8 0 0 0-.551-.222 2.8 2.8 0 0 0-.59-.09 2.5 2.5 0 0 0-.594.043q-.297.053-.57.176-.276.118-.516.3-.24.178-.433.407a2.7 2.7 0 0 0-.332.496q-.135.264-.211.559a2.7 2.7 0 0 0-.024 1.183q.06.294.188.563a2.6 2.6 0 0 0 .722.937 2.6 2.6 0 0 0 1.067.52q.288.07.59.07m0-4.508q.626-.001 1.129.38a1.87 1.87 0 0 1 .699 1.07q.051.211.05.43a1.8 1.8 0 0 1-.199.84q-.098.193-.238.362a1.84 1.84 0 0 1-1.441.676q-.374 0-.72-.144a1.8 1.8 0 0 1-.608-.407 1.9 1.9 0 0 1-.55-1.328 1.89 1.89 0 0 1 1.159-1.734c.23-.094.469-.145.719-.145m10.515 0q.627-.001 1.125.38.176.127.317.296.14.17.238.363.097.194.148.41.05.213.051.43a1.88 1.88 0 0 1-.754 1.504q-.498.375-1.125.375t-1.125-.375a1.9 1.9 0 0 1-.554-.664 1.9 1.9 0 0 1-.2-.84c0-.144.02-.289.051-.43a1.8 1.8 0 0 1 .387-.773q.141-.168.316-.297a1.8 1.8 0 0 1 1.125-.379m10.516 0a1.89 1.89 0 0 1 1.734 1.16q.146.346.145.72.001.374-.145.718-.14.346-.406.61a1.8 1.8 0 0 1-.61.406q-.344.145-.718.144-.627 0-1.125-.375a1.9 1.9 0 0 1-.555-.664 1.9 1.9 0 0 1-.199-.84c0-.144.02-.289.05-.43a1.8 1.8 0 0 1 .387-.773q.141-.168.317-.297a1.8 1.8 0 0 1 1.125-.379m-6.762-1.5h3.008q.334.002.645.114.313.116.57.332a1.88 1.88 0 0 1 .637 1.129q-.315.326-.497.742a2.6 2.6 0 0 0-.218.867q-.037.452.086.887.117.438.375.812h-6.203q.256-.375.378-.812.118-.435.082-.887-.032-.45-.218-.867a2.6 2.6 0 0 0-.492-.742 1.84 1.84 0 0 1 .636-1.13 1.83 1.83 0 0 1 1.211-.445m-10.512 0h3.004q.335.002.645.114.314.116.57.332a1.88 1.88 0 0 1 .637 1.129q-.315.326-.496.742a2.6 2.6 0 0 0-.219.867q-.036.452.086.887.117.438.375.812H6.629q.257-.375.379-.812.117-.435.082-.887c-.024-.3-.094-.59-.219-.867a2.6 2.6 0 0 0-.492-.742 1.84 1.84 0 0 1 .637-1.13 1.83 1.83 0 0 1 1.214-.445m-4.507-2.254h3.851a2.66 2.66 0 0 0 1.531 1.047q.308.077.625.078.319 0 .625-.078.31-.07.59-.222a2.66 2.66 0 0 0 .941-.824h6.204a2.66 2.66 0 0 0 1.531 1.046 2.6 2.6 0 0 0 1.25 0q.31-.07.59-.222.283-.146.52-.356.24-.21.421-.469h3.852a1.1 1.1 0 0 0 .797-.332 1.2 1.2 0 0 0 .246-.363q.084-.206.086-.43v-.378q-.002-.224-.086-.43a1.14 1.14 0 0 0-1.043-.695V1.125q.001-.223-.086-.43a1.1 1.1 0 0 0-.242-.367 1.1 1.1 0 0 0-.367-.242 1.1 1.1 0 0 0-.43-.086H4.848q-.224-.001-.43.086a1.2 1.2 0 0 0-.367.242 1.13 1.13 0 0 0-.328.797v12.02a1.12 1.12 0 0 0-.797.328q-.159.16-.246.367a1.2 1.2 0 0 0-.086.43v.378q.002.224.086.43a1.15 1.15 0 0 0 .61.61q.21.086.433.085m7.136 0q-.502.375-1.129.375t-1.125-.375q-.76-.562-.753-1.503-.002-.187.039-.375c.054-.274.168-.528.34-.75a1.8 1.8 0 0 1 .296-.317q.17-.14.364-.238.193-.096.41-.145.211-.051.43-.05.216-.001.433.05.211.05.406.145.194.098.364.238c.113.094.21.2.3.317.168.222.282.476.336.75q.041.188.04.375a1.77 1.77 0 0 1-.75 1.503m1.391-.75q.11-.368.11-.753.002-.187-.032-.375h5.32a2.6 2.6 0 0 0 .078 1.129Zm9.121.75q-.498.375-1.125.375t-1.125-.375q-.761-.562-.754-1.503-.001-.187.04-.375c.054-.274.167-.528.335-.75a1.9 1.9 0 0 1 .664-.555q.194-.096.41-.145.213-.051.43-.05.218-.001.434.05.211.05.406.145.194.098.363.238.168.141.301.317c.168.222.281.476.336.75q.04.188.039.375.007.941-.754 1.503m5.258-1.503v.378a.36.36 0 0 1-.11.266c-.07.07-.16.11-.265.11h-3.488q.11-.37.109-.754.002-.187-.031-.375h3.41q.159.002.266.109.11.112.109.266M4.473 1.125q-.001-.153.109-.266A.38.38 0 0 1 4.848.75h20.28c.102 0 .192.04.267.11q.11.111.109.265v12.02H22.62a2.6 2.6 0 0 0-.973-1.094 2.6 2.6 0 0 0-1.402-.406q-.76 0-1.402.406-.645.408-.973 1.094h-5.766a2.6 2.6 0 0 0-.972-1.094 2.6 2.6 0 0 0-1.403-.406q-.759 0-1.402.406-.645.408-.973 1.094H4.473ZM3.348 14.27q-.001-.154.109-.266c.074-.07.16-.11.266-.11h3.41a2.6 2.6 0 0 0 .078 1.129H3.723a.37.37 0 0 1-.375-.375Zm0 0"/><path fill="#38b6ff" d="M11.797 3.379h6.383a.36.36 0 0 0 .265-.11.36.36 0 0 0 .11-.265.36.36 0 0 0-.11-.266.36.36 0 0 0-.265-.11h-6.383a.36.36 0 0 0-.266.11.36.36 0 0 0-.11.266q0 .155.11.266.109.11.266.109m-4.32 2.629H22.5a.36.36 0 0 0 .266-.11.36.36 0 0 0 .109-.265.36.36 0 0 0-.11-.266.36.36 0 0 0-.265-.11H7.477a.36.36 0 0 0-.266.11.36.36 0 0 0-.11.266q0 .156.11.265.112.111.266.11m0 3.004H22.5a.36.36 0 0 0 .266-.11.36.36 0 0 0 .109-.265.36.36 0 0 0-.11-.266.38.38 0 0 0-.265-.11H7.477a.38.38 0 0 0-.266.11.36.36 0 0 0-.11.266q0 .156.11.265.112.111.266.11m15.398 2.254a.36.36 0 0 0-.11-.266.38.38 0 0 0-.265-.11H7.477a.38.38 0 0 0-.266.11.36.36 0 0 0-.11.266q0 .156.11.265.112.11.266.11H22.5a.36.36 0 0 0 .266-.11.36.36 0 0 0 .109-.265m0 0"/><g clip-path="url(#d)"><path fill="#38b6ff" d="M16.492 24.41h-3.008a2.6 2.6 0 0 0-1.855.77 2.6 2.6 0 0 0-.57.855 2.6 2.6 0 0 0-.2 1.004v3.383q0 .153.11.262.106.112.265.113h7.508q.16-.002.266-.113a.35.35 0 0 0 .113-.262v-3.383q.001-.523-.203-1.004a2.6 2.6 0 0 0-.566-.855 2.7 2.7 0 0 0-.856-.57 2.6 2.6 0 0 0-1.004-.2m1.875 5.633H11.61v-3.004q0-.374.141-.719a1.9 1.9 0 0 1 1.02-1.015c.226-.094.468-.14.714-.14h3.008a1.9 1.9 0 0 1 .719.14q.34.144.61.406.26.264.406.61.14.344.14.718Zm0 0"/></g><g clip-path="url(#e)"><path fill="#38b6ff" d="M5.977 24.41H2.973a2.6 2.6 0 0 0-1.86.77 2.6 2.6 0 0 0-.57.855 2.6 2.6 0 0 0-.2 1.004v3.383q0 .153.11.262.106.112.266.113H8.23q.155-.002.262-.113a.35.35 0 0 0 .113-.262v-3.383q.001-.523-.203-1.004a2.6 2.6 0 0 0-.566-.855 2.7 2.7 0 0 0-.856-.57 2.6 2.6 0 0 0-1.003-.2m1.875 5.633H1.094v-3.004q0-.374.14-.719a1.9 1.9 0 0 1 1.02-1.015 1.9 1.9 0 0 1 .719-.14h3.004a1.9 1.9 0 0 1 .718.14c.23.097.43.23.61.406q.26.264.406.61.14.344.14.718Zm0 0"/></g><g clip-path="url(#f)"><path fill="#38b6ff" d="M27.008 24.41H24a2.6 2.6 0 0 0-1.855.77q-.373.368-.57.855-.203.481-.204 1.004v3.383q.002.153.113.262.106.112.266.113h7.508q.159-.002.265-.113a.35.35 0 0 0 .114-.262v-3.383q0-.523-.203-1.004a2.63 2.63 0 0 0-2.426-1.625m1.875 5.633h-6.758v-3.004q0-.374.14-.719a1.9 1.9 0 0 1 1.02-1.016c.227-.093.469-.14.715-.14h3.008a1.9 1.9 0 0 1 .719.14q.34.145.609.407.262.264.406.61.14.344.14.718Zm0 0"/></g><path fill="#38b6ff" d="M4.473 24.035q.748.006 1.386-.398a.3.3 0 0 0 .118.023h7.507a.3.3 0 0 0 .118-.023q.637.396 1.386.394.749.002 1.387-.394a.3.3 0 0 0 .117.023H24a.3.3 0 0 0 .117-.023q.638.405 1.387.398.3 0 .594-.07.288-.065.558-.2c.18-.085.348-.195.504-.32a2.7 2.7 0 0 0 .727-.937q.124-.27.183-.563c.043-.199.063-.394.055-.593a2.7 2.7 0 0 0-.078-.59 2.7 2.7 0 0 0-.211-.559 2.7 2.7 0 0 0-.332-.496 2.5 2.5 0 0 0-.434-.406 2.4 2.4 0 0 0-.515-.301 2.4 2.4 0 0 0-.57-.176 2.7 2.7 0 0 0-1.18.047 2.7 2.7 0 0 0-.555.223 2.6 2.6 0 0 0-.375-.735 2.6 2.6 0 0 0-.582-.582 2.6 2.6 0 0 0-1.543-.5h-3.008q-.415-.001-.812.125a2.65 2.65 0 0 0-1.687 1.691 2.6 2.6 0 0 0-1.255-.316 2.6 2.6 0 0 0-1.254.317 2.6 2.6 0 0 0-.375-.735 2.6 2.6 0 0 0-.582-.582 2.6 2.6 0 0 0-1.543-.5H8.23q-.418.001-.816.125a2.65 2.65 0 0 0-1.687 1.691 2.8 2.8 0 0 0-.551-.222 2.8 2.8 0 0 0-.59-.09 2.5 2.5 0 0 0-.594.043q-.297.053-.57.176-.276.118-.516.3-.24.178-.433.407a2.7 2.7 0 0 0-.332.496q-.135.264-.211.559a2.7 2.7 0 0 0-.024 1.183q.06.294.188.563a2.6 2.6 0 0 0 .722.937 2.6 2.6 0 0 0 1.067.52q.288.07.59.07m0-4.508q.626-.001 1.129.38a1.87 1.87 0 0 1 .699 1.07q.051.211.05.43a1.8 1.8 0 0 1-.199.84q-.098.193-.238.362a1.84 1.84 0 0 1-1.441.676q-.374 0-.72-.144a1.8 1.8 0 0 1-.608-.407 1.9 1.9 0 0 1-.55-1.328 1.89 1.89 0 0 1 1.159-1.734c.23-.094.469-.145.719-.145m10.515 0q.627-.001 1.125.38.176.127.317.296.14.17.238.363.097.194.148.41.05.213.051.43a1.88 1.88 0 0 1-.754 1.504q-.498.375-1.125.375t-1.125-.375a1.9 1.9 0 0 1-.554-.664 1.9 1.9 0 0 1-.2-.84c0-.144.02-.289.051-.43a1.8 1.8 0 0 1 .387-.773q.141-.168.316-.297a1.8 1.8 0 0 1 1.125-.379m10.516 0a1.89 1.89 0 0 1 1.734 1.16q.146.346.145.72.001.374-.145.718-.14.346-.406.61a1.8 1.8 0 0 1-.61.406q-.344.145-.718.144-.627 0-1.125-.375a1.9 1.9 0 0 1-.555-.664 1.9 1.9 0 0 1-.199-.84c0-.144.02-.289.05-.43a1.8 1.8 0 0 1 .387-.773q.141-.168.317-.297a1.8 1.8 0 0 1 1.125-.379m-6.762-1.5h3.008q.334.002.645.114.313.116.57.332a1.88 1.88 0 0 1 .637 1.129q-.315.326-.497.742a2.6 2.6 0 0 0-.218.867q-.037.452.086.887.117.438.375.812h-6.203q.256-.375.378-.812.118-.435.082-.887-.032-.45-.218-.867a2.6 2.6 0 0 0-.492-.742 1.84 1.84 0 0 1 .636-1.13 1.83 1.83 0 0 1 1.211-.445m-10.512 0h3.004q.335.002.645.114.314.116.57.332a1.88 1.88 0 0 1 .637 1.129q-.315.326-.496.742a2.6 2.6 0 0 0-.219.867q-.036.452.086.887.117.438.375.812H6.629q.257-.375.379-.812.117-.435.082-.887c-.024-.3-.094-.59-.219-.867a2.6 2.6 0 0 0-.492-.742 1.84 1.84 0 0 1 .637-1.13 1.83 1.83 0 0 1 1.214-.445m0 0"/></svg>