<svg xmlns="http://www.w3.org/2000/svg" width="30" height="51" version="1.0" viewBox="0 0 22.5 38.25"><defs><clipPath id="a"><path d="M0 .05h22V35H0Zm0 0"/></clipPath><clipPath id="b"><path d="M0 34h22v2.781H0Zm0 0"/></clipPath><clipPath id="c"><path d="M0 .832h22V36H0Zm0 0"/></clipPath></defs><path fill="#38b6ff" d="M11.488 15.133a.54.54 0 0 1-.164.394.53.53 0 0 1-.394.164.54.54 0 0 1-.395-.164.54.54 0 0 1-.164-.394q0-.232.164-.395a.54.54 0 0 1 .395-.164q.232 0 .394.164.164.163.164.395m1.664-4.403c.235-.398.434-1.183.524-2.101.097-1.145.039-2.707-.801-3.621-.453-.496-1.11-.746-1.945-.746-.836 0-1.492.25-1.946.746-.836.914-.894 2.472-.796 3.625.09.918.285 1.699.523 2.097.332.555 1.242 1.336 2.219 1.336s1.886-.78 2.222-1.336m-1.855 5.489a1.15 1.15 0 0 1-.73 0l-.477 2.031.84.855.843-.855Zm7.531 17.59c-1.687-.266-3.953-.442-6.394-.493-1.098 1.602-1.344 1.602-1.504 1.602s-.407 0-1.504-1.602c-2.438.051-4.703.227-6.395.493-2.277.359-2.644.746-2.695.816.055.078.465.508 3.137.883 2.02.285 4.668.441 7.457.441s5.437-.156 7.457-.441c2.675-.375 3.086-.805 3.136-.883-.05-.07-.414-.457-2.695-.816m0 0"/><path fill="#38b6ff" d="m9.48 18.273.567-2.414a1.147 1.147 0 1 1 1.77 0l.566 2.414a.3.3 0 0 1-.078.278l-.637.644a8.2 8.2 0 0 0 3.766-1.3c-.868-3.266-2.97-4.243-3.848-4.512a.29.29 0 0 1-.207-.281v-.489a2.4 2.4 0 0 1-.895 0v.489a.3.3 0 0 1-.21.28c-.876.27-2.977 1.247-3.844 4.513a8.2 8.2 0 0 0 3.765 1.3l-.64-.644a.3.3 0 0 1-.075-.278m0 0"/><g clip-path="url(#a)"><path fill="#38b6ff" d="M10.93 34.293c.648-.547 3.254-4.594 5.86-9.61 3.222-6.203 5.07-11.199 5.07-13.706 0-6.016-4.903-10.91-10.93-10.91S0 4.96 0 10.976c0 2.507 1.848 7.503 5.074 13.707 2.606 5.015 5.207 9.062 5.856 9.609M2.078 10.977c0-4.872 3.973-8.84 8.852-8.84 4.883 0 8.855 3.968 8.855 8.84 0 4.875-3.972 8.84-8.855 8.84-4.88 0-8.852-3.965-8.852-8.84m0 0"/></g><path fill="#38b6ff" d="M11.488 15.914a.54.54 0 0 1-.164.395.53.53 0 0 1-.394.164.54.54 0 0 1-.395-.164.54.54 0 0 1-.164-.395q0-.232.164-.394a.54.54 0 0 1 .395-.165q.232 0 .394.165.164.162.164.394m1.664-4.402c.235-.399.434-1.184.524-2.102.097-1.144.039-2.707-.801-3.62-.453-.497-1.11-.747-1.945-.747-.836 0-1.492.25-1.946.746-.836.914-.894 2.473-.796 3.625.09.918.285 1.7.523 2.098.332.554 1.242 1.336 2.219 1.336s1.886-.782 2.222-1.336M11.297 17a1.15 1.15 0 0 1-.73 0l-.477 2.031.84.856.843-.856Zm0 0"/><g clip-path="url(#b)"><path fill="#38b6ff" d="M18.828 34.59c-1.687-.266-3.953-.442-6.394-.492-1.098 1.601-1.344 1.601-1.504 1.601s-.407 0-1.504-1.601c-2.438.05-4.703.226-6.395.492-2.277.36-2.644.746-2.695.816.055.078.465.508 3.137.883 2.02.285 4.668.441 7.457.441s5.437-.156 7.457-.44c2.675-.376 3.086-.806 3.136-.884-.05-.07-.414-.457-2.695-.816m0 0"/></g><path fill="#38b6ff" d="m9.48 19.059.567-2.418a1.147 1.147 0 1 1 1.77 0l.566 2.418a.3.3 0 0 1-.078.273l-.637.645a8.2 8.2 0 0 0 3.766-1.301c-.868-3.266-2.97-4.242-3.848-4.512a.29.29 0 0 1-.207-.281v-.488a2.4 2.4 0 0 1-.895 0v.488a.29.29 0 0 1-.21.281c-.876.27-2.977 1.246-3.844 4.512a8.2 8.2 0 0 0 3.765 1.3l-.64-.644a.3.3 0 0 1-.075-.273m0 0"/><g clip-path="url(#c)"><path fill="#38b6ff" d="M10.93 35.074c.648-.547 3.254-4.594 5.86-9.61 3.222-6.202 5.07-11.198 5.07-13.706 0-6.016-4.903-10.91-10.93-10.91S0 5.742 0 11.758c0 2.508 1.848 7.504 5.074 13.707 2.606 5.015 5.207 9.062 5.856 9.61M2.078 11.758c0-4.871 3.973-8.84 8.852-8.84 4.883 0 8.855 3.969 8.855 8.84 0 4.875-3.972 8.84-8.855 8.84-4.88 0-8.852-3.965-8.852-8.84m0 0"/></g></svg>